<svg xmlns:dc="http://purl.org/dc/elements/1.1/" xmlns:cc="http://creativecommons.org/ns#" xmlns:rdf="http://www.w3.org/1999/02/22-rdf-syntax-ns#" xmlns:svg="http://www.w3.org/2000/svg" xmlns="http://www.w3.org/2000/svg" xmlns:sodipodi="http://sodipodi.sourceforge.net/DTD/sodipodi-0.dtd" xmlns:inkscape="http://www.inkscape.org/namespaces/inkscape" width="210mm" height="297mm" viewBox="0 0 210 297" id="svg903" inkscape:export-filename="/Users/pag/Documents/open.control/website/display.png" inkscape:export-xdpi="44" inkscape:export-ydpi="44" inkscape:version="1.0.2 (e86c8708, 2021-01-15)" sodipodi:docname="displayicon.svg"><defs id="defs897"></defs><metadata></metadata><g inkscape:label="Calque 1" inkscape:groupmode="layer" id="layer1"><rect style="fill:#808080;stroke:#000000;stroke-width:0.931024;stroke-opacity:0.640379" id="rect905-2" width="41.734402" height="27.128025" x="-180.12228" y="152.1436" rx="6.9334297" transform="matrix(0.58254805,-0.81279626,0.50832016,0.86116817,0,0)"></rect><rect style="fill:#808080;stroke:#000000;stroke-width:0.931024;stroke-opacity:0.640379" id="rect905-9-5" width="41.734402" height="27.128025" x="-153.23795" y="121.33382" rx="6.9334297" transform="matrix(0.58254805,-0.81279626,0.50832016,0.86116817,0,0)"></rect><rect style="fill:#808080;stroke:#000000;stroke-width:0.931024;stroke-opacity:0.640379" id="rect905-5-1" width="41.734402" height="27.128025" x="-126.35392" y="90.523148" rx="6.9334297" transform="matrix(0.58254805,-0.81279626,0.50832016,0.86116817,0,0)"></rect><rect style="fill:#808080;stroke:#000000;stroke-width:0.931024;stroke-opacity:0.640379" id="rect905-9-6-3" width="41.734402" height="27.128025" x="-99.470016" y="59.71312" rx="6.9334297" transform="matrix(0.58254805,-0.81279626,0.50832016,0.86116817,0,0)"></rect><rect style="fill:#808080;stroke:#000000;stroke-width:0.931024;stroke-opacity:0.640379" id="rect905-5-8-9" width="41.734402" height="27.128025" x="-72.586044" y="28.903465" rx="6.9334297" transform="matrix(0.58254805,-0.81279626,0.50832016,0.86116817,0,0)"></rect><rect style="fill:#808080;stroke:#000000;stroke-width:0.931024;stroke-opacity:0.640379" id="rect905-9-6-4-7" width="41.734402" height="27.128025" x="-45.701977" y="-1.906435" rx="6.9334297" transform="matrix(0.58254805,-0.81279626,0.50832016,0.86116817,0,0)"></rect><rect style="fill:#808080;stroke:#000000;stroke-width:0.931024;stroke-opacity:0.640379" id="rect905-6" width="41.734402" height="27.128025" x="-143.41385" y="186.78978" rx="6.9334297" transform="matrix(0.58254805,-0.81279626,0.50832016,0.86116817,0,0)"></rect><rect style="fill:#808080;stroke:#000000;stroke-width:0.931024;stroke-opacity:0.640379" id="rect905-9-7" width="41.734402" height="27.128025" x="-116.52993" y="155.98004" rx="6.9334297" transform="matrix(0.58254805,-0.81279626,0.50832016,0.86116817,0,0)"></rect><rect style="fill:#f9f9f9;stroke:#000000;stroke-width:0.931024;stroke-opacity:0.640379" id="rect905-5-9" width="41.734402" height="27.128025" x="-89.645966" y="125.17015" rx="6.9334297" transform="matrix(0.58254805,-0.81279626,0.50832016,0.86116817,0,0)"></rect><rect style="fill:#808080;stroke:#000000;stroke-width:0.931024;stroke-opacity:0.640379" id="rect905-9-6-41" width="41.734402" height="27.128025" x="-62.761929" y="94.359673" rx="6.9334297" transform="matrix(0.58254805,-0.81279626,0.50832016,0.86116817,0,0)"></rect><rect style="fill:#808080;stroke:#000000;stroke-width:0.931024;stroke-opacity:0.640379" id="rect905-5-8-6" width="41.734402" height="27.128025" x="-35.877872" y="63.549438" rx="6.9334297" transform="matrix(0.58254805,-0.81279626,0.50832016,0.86116817,0,0)"></rect><rect style="fill:#808080;stroke:#000000;stroke-width:0.931024;stroke-opacity:0.640379" id="rect905-9-6-4-1" width="41.734402" height="27.128025" x="-8.9938774" y="32.739784" rx="6.9334297" transform="matrix(0.58254805,-0.81279626,0.50832016,0.86116817,0,0)"></rect><rect style="fill:#808080;stroke:#000000;stroke-width:0.931024;stroke-opacity:0.640379" id="rect905-2-2" width="41.734402" height="27.128025" x="-106.70599" y="221.43518" rx="6.9334297" transform="matrix(0.58254805,-0.81279626,0.50832016,0.86116817,0,0)"></rect><rect style="fill:#f9f9f9;stroke:#000000;stroke-width:0.931024;stroke-opacity:0.640379" id="rect905-9-5-0" width="41.734402" height="27.128025" x="-79.821968" y="190.62633" rx="6.9334297" transform="matrix(0.58254805,-0.81279626,0.50832016,0.86116817,0,0)"></rect><rect style="fill:#808080;stroke:#000000;stroke-width:0.931024;stroke-opacity:0.640379" id="rect905-5-1-4" width="41.734402" height="27.128025" x="-52.938053" y="159.8165" rx="6.9334297" transform="matrix(0.58254805,-0.81279626,0.50832016,0.86116817,0,0)"></rect><rect style="fill:#808080;stroke:#000000;stroke-width:0.931024;stroke-opacity:0.640379" id="rect905-9-6-3-4" width="41.734402" height="27.128025" x="-26.053793" y="129.00667" rx="6.9334297" transform="matrix(0.58254805,-0.81279626,0.50832016,0.86116817,0,0)"></rect><rect style="fill:#808080;stroke:#000000;stroke-width:0.931024;stroke-opacity:0.640379" id="rect905-5-8-9-5" width="41.734402" height="27.128025" x="0.83017302" y="98.196106" rx="6.9334297" transform="matrix(0.58254805,-0.81279626,0.50832016,0.86116817,0,0)"></rect><rect style="fill:#808080;stroke:#000000;stroke-width:0.931024;stroke-opacity:0.640379" id="rect905-9-6-4-7-9" width="41.734402" height="27.128025" x="27.714376" y="67.385788" rx="6.9334297" transform="matrix(0.58254805,-0.81279626,0.50832016,0.86116817,0,0)"></rect><rect style="fill:#808080;stroke:#000000;stroke-width:0.931024;stroke-opacity:0.640379" id="rect905-0" width="41.734402" height="27.128025" x="-69.998047" y="256.08026" rx="6.9334297" transform="matrix(0.58254805,-0.81279626,0.50832016,0.86116817,0,0)"></rect><rect style="fill:#808080;stroke:#000000;stroke-width:0.931024;stroke-opacity:0.640379" id="rect905-9-55" width="41.734402" height="27.128025" x="-43.1138" y="225.27158" rx="6.9334297" transform="matrix(0.58254805,-0.81279626,0.50832016,0.86116817,0,0)"></rect><rect style="fill:#f9f9f9;stroke:#000000;stroke-width:0.931024;stroke-opacity:0.640379" id="rect905-5-6" width="41.734402" height="27.128025" x="-16.229795" y="194.46266" rx="6.9334297" transform="matrix(0.58254805,-0.81279626,0.50832016,0.86116817,0,0)"></rect><rect style="fill:#808080;stroke:#000000;stroke-width:0.931024;stroke-opacity:0.640379" id="rect905-9-6-32" width="41.734402" height="27.128025" x="10.654315" y="163.65292" rx="6.9334297" transform="matrix(0.58254805,-0.81279626,0.50832016,0.86116817,0,0)"></rect><rect style="fill:#808080;stroke:#000000;stroke-width:0.931024;stroke-opacity:0.640379" id="rect905-5-8-68" width="41.734402" height="27.128025" x="37.538498" y="132.84312" rx="6.9334297" transform="matrix(0.58254805,-0.81279626,0.50832016,0.86116817,0,0)"></rect><rect style="fill:#808080;stroke:#000000;stroke-width:0.931024;stroke-opacity:0.640379" id="rect905-9-6-4-9" width="41.734402" height="27.128025" x="64.422775" y="102.0326" rx="6.9334297" transform="matrix(0.58254805,-0.81279626,0.50832016,0.86116817,0,0)"></rect><rect style="fill:#808080;stroke:#000000;stroke-width:0.931024;stroke-opacity:0.640379" id="rect905-2-1" width="41.734402" height="27.128025" x="-33.28973" y="290.72641" rx="6.9334297" transform="matrix(0.58254805,-0.81279626,0.50832016,0.86116817,0,0)"></rect><rect style="fill:#808080;stroke:#000000;stroke-width:0.931024;stroke-opacity:0.640379" id="rect905-9-5-4" width="41.734402" height="27.128025" x="-6.4057188" y="259.91678" rx="6.9334297" transform="matrix(0.58254805,-0.81279626,0.50832016,0.86116817,0,0)"></rect><rect style="fill:#808080;stroke:#000000;stroke-width:0.931024;stroke-opacity:0.640379" id="rect905-5-1-8" width="41.734402" height="27.128025" x="20.47834" y="229.10773" rx="6.9334297" transform="matrix(0.58254805,-0.81279626,0.50832016,0.86116817,0,0)"></rect><rect style="fill:#f9f9f9;stroke:#000000;stroke-width:0.931024;stroke-opacity:0.640379" id="rect905-9-6-3-8" width="41.734402" height="27.128025" x="47.362595" y="198.299" rx="6.9334297" transform="matrix(0.58254805,-0.81279626,0.50832016,0.86116817,0,0)"></rect><rect style="fill:#808080;stroke:#000000;stroke-width:0.931024;stroke-opacity:0.640379" id="rect905-5-8-9-7" width="41.734402" height="27.128025" x="74.246796" y="167.48938" rx="6.9334297" transform="matrix(0.58254805,-0.81279626,0.50832016,0.86116817,0,0)"></rect><rect style="fill:#808080;stroke:#000000;stroke-width:0.931024;stroke-opacity:0.640379" id="rect905-9-6-4-7-1" width="41.734402" height="27.128025" x="101.13078" y="136.67953" rx="6.9334297" transform="matrix(0.58254805,-0.81279626,0.50832016,0.86116817,0,0)"></rect><rect style="fill:#808080;stroke:#000000;stroke-width:0.931024;stroke-opacity:0.640379" id="rect905-6-9" width="41.734402" height="27.128025" x="3.418273" y="325.3728" rx="6.9334297" transform="matrix(0.58254805,-0.81279626,0.50832016,0.86116817,0,0)"></rect><rect style="fill:#808080;stroke:#000000;stroke-width:0.931024;stroke-opacity:0.640379" id="rect905-9-7-3" width="41.734402" height="27.128025" x="30.30249" y="294.56311" rx="6.9334297" transform="matrix(0.58254805,-0.81279626,0.50832016,0.86116817,0,0)"></rect><rect style="fill:#808080;stroke:#000000;stroke-width:0.931024;stroke-opacity:0.640379" id="rect905-5-9-1" width="41.734402" height="27.128025" x="57.186714" y="263.75314" rx="6.9334297" transform="matrix(0.58254805,-0.81279626,0.50832016,0.86116817,0,0)"></rect><rect style="fill:#808080;stroke:#000000;stroke-width:0.931024;stroke-opacity:0.640379" id="rect905-9-6-41-1" width="41.734402" height="27.128025" x="84.070862" y="232.94415" rx="6.9334297" transform="matrix(0.58254805,-0.81279626,0.50832016,0.86116817,0,0)"></rect><rect style="fill:#f9f9f9;stroke:#000000;stroke-width:0.931024;stroke-opacity:0.640379" id="rect905-5-8-6-4" width="41.734402" height="27.128025" x="110.95496" y="202.13539" rx="6.9334297" transform="matrix(0.58254805,-0.81279626,0.50832016,0.86116817,0,0)"></rect><rect style="fill:#808080;stroke:#000000;stroke-width:0.931024;stroke-opacity:0.640379" id="rect905-9-6-4-1-9" width="41.734402" height="27.128025" x="137.839" y="171.32576" rx="6.9334297" transform="matrix(0.58254805,-0.81279626,0.50832016,0.86116817,0,0)"></rect><rect style="fill:#808080;stroke:#000000;stroke-width:0.931024;stroke-opacity:0.640379" id="rect905-2-2-5" width="41.734402" height="27.128025" x="40.12664" y="360.01901" rx="6.9334297" transform="matrix(0.58254805,-0.81279626,0.50832016,0.86116817,0,0)"></rect><rect style="fill:#808080;stroke:#000000;stroke-width:0.931024;stroke-opacity:0.640379" id="rect905-9-5-0-9" width="41.734402" height="27.128025" x="67.010811" y="329.20926" rx="6.9334297" transform="matrix(0.58254805,-0.81279626,0.50832016,0.86116817,0,0)"></rect><rect style="fill:#808080;stroke:#000000;stroke-width:0.931024;stroke-opacity:0.640379" id="rect905-5-1-4-0" width="41.734402" height="27.128025" x="93.894882" y="298.39929" rx="6.9334297" transform="matrix(0.58254805,-0.81279626,0.50832016,0.86116817,0,0)"></rect><rect style="fill:#808080;stroke:#000000;stroke-width:0.931024;stroke-opacity:0.640379" id="rect905-9-6-3-4-9" width="41.734402" height="27.128025" x="120.77901" y="267.5896" rx="6.9334297" transform="matrix(0.58254805,-0.81279626,0.50832016,0.86116817,0,0)"></rect><rect style="fill:#808080;stroke:#000000;stroke-width:0.931024;stroke-opacity:0.640379" id="rect905-5-8-9-5-3" width="41.734402" height="27.128025" x="147.66315" y="236.78047" rx="6.9334297" transform="matrix(0.58254805,-0.81279626,0.50832016,0.86116817,0,0)"></rect><rect style="fill:#808080;stroke:#000000;stroke-width:0.931024;stroke-opacity:0.640379" id="rect905-9-6-4-7-9-4" width="41.734402" height="27.128025" x="174.54707" y="205.97157" rx="6.9334297" transform="matrix(0.58254805,-0.81279626,0.50832016,0.86116817,0,0)"></rect></g></svg>