<?xml version="1.0" standalone="no"?>
<!DOCTYPE svg PUBLIC "-//W3C//DTD SVG 20010904//EN"
 "http://www.w3.org/TR/2001/REC-SVG-20010904/DTD/svg10.dtd">
<svg version="1.0" xmlns="http://www.w3.org/2000/svg"
 width="953.000000pt" height="953.000000pt" viewBox="0 0 953.000000 953.000000"
 preserveAspectRatio="xMidYMid meet">
<metadata>
Created by potrace 1.14, written by Peter Selinger 2001-2017
</metadata>
<g transform="translate(0.000000,953.000000) scale(0.100000,-0.100000)"
fill="#000000" stroke="none">
<path d="M362 7255 c-77 -18 -156 -63 -216 -122 -64 -61 -102 -125 -127 -212
-17 -61 -19 -107 -18 -700 0 -524 3 -646 15 -691 46 -172 188 -309 359 -344
91 -19 8740 -16 8805 3 148 43 269 157 326 306 18 47 19 90 21 700 3 706 3
706 -53 819 -58 119 -202 225 -332 247 -35 5 -1736 9 -4392 8 -3498 -1 -4345
-3 -4388 -14z"/>
<path d="M255 5019 c-116 -40 -195 -120 -234 -236 -20 -60 -21 -77 -21 -1101
0 -1073 1 -1104 40 -1182 45 -88 155 -174 250 -196 58 -13 887 -12 946 1 143
32 262 152 289 290 3 17 5 503 6 1080 0 1152 3 1096 -61 1194 -39 61 -87 103
-159 139 l-56 27 -470 2 c-453 3 -472 2 -530 -18z"/>
<path d="M1880 5003 c-131 -33 -233 -137 -270 -272 -16 -59 -16 -2094 -1
-2164 27 -116 98 -205 211 -260 l65 -32 470 0 c502 0 515 1 596 51 46 29 95
77 126 128 55 87 54 57 54 1181 0 572 -3 1056 -6 1075 -18 100 -105 218 -196
265 -79 41 -115 44 -563 43 -336 0 -443 -4 -486 -15z"/>
<path d="M3455 4999 c-127 -44 -215 -144 -246 -279 -15 -64 -14 -2088 1 -2154
29 -132 131 -239 265 -278 71 -21 881 -22 970 -1 70 16 125 47 179 100 40 39
91 134 101 188 5 29 7 635 5 1648 -1 469 -2 490 -22 545 -41 113 -117 189
-230 230 -54 20 -75 21 -510 21 -431 1 -456 0 -513 -20z"/>
<path d="M5055 4999 c-120 -41 -205 -131 -241 -254 -15 -53 -16 -154 -16
-1100 0 -915 2 -1049 16 -1096 39 -135 147 -237 282 -267 22 -5 243 -8 490 -7
389 1 455 4 492 18 83 32 171 107 206 176 48 91 46 46 43 1191 l-2 1075 -31
65 c-48 100 -124 168 -227 203 -42 14 -110 16 -500 16 -431 1 -455 0 -512 -20z"/>
<path d="M6666 5004 c-115 -36 -206 -124 -247 -240 -21 -58 -21 -72 -21 -1104
0 -731 4 -1060 11 -1093 32 -137 130 -240 266 -280 41 -12 131 -14 500 -12
510 2 515 3 608 78 64 53 103 108 127 178 18 51 18 111 17 1129 l-2 1075 -31
65 c-50 105 -128 171 -243 206 -69 21 -915 19 -985 -2z"/>
<path d="M8275 5008 c-136 -37 -250 -164 -271 -303 -4 -27 -7 -511 -7 -1075 0
-781 3 -1036 13 -1070 39 -143 146 -247 288 -278 50 -12 870 -12 932 0 113 21
228 117 273 228 l22 55 3 1066 c2 1056 2 1066 -19 1129 -34 105 -94 172 -199
223 l-65 32 -465 2 c-305 1 -479 -2 -505 -9z"/>
</g>
</svg>
